<?xml version="1.0" encoding="UTF-8" standalone="no"?>
<!-- Created with Inkscape (http://www.inkscape.org/) -->
<svg xmlns:inkscape="http://www.inkscape.org/namespaces/inkscape" xmlns:rdf="http://www.w3.org/1999/02/22-rdf-syntax-ns#" xmlns="http://www.w3.org/2000/svg" xmlns:xlink="http://www.w3.org/1999/xlink" xmlns:ns1="http://sozi.baierouge.fr" xmlns:cc="http://creativecommons.org/ns#" xmlns:sodipodi="http://sodipodi.sourceforge.net/DTD/sodipodi-0.dtd" xmlns:dc="http://purl.org/dc/elements/1.1/" id="svg2" xml:space="preserve" viewBox="0 0 128.35 209.4" version="1.1" inkscape:version="0.91 r13725">
  <defs id="defs6">
    <clipPath id="clipPath18">
      <path id="path20" d="m0-0.47635h52v11h-52v-11z" inkscape:connector-curvature="0"/>
    </clipPath>
    <mask id="mask22">
      <g id="g24">
        <g id="g26" clip-path="url(#clipPath18)">
          <path id="path28" style="fill:#000000;fill-opacity:.46880" d="m0-0.47635h52v11h-52v-11z" inkscape:connector-curvature="0"/>
        </g>
      </g>
    </mask>
    <clipPath id="clipPath34">
      <path id="path36" d="m0-0.47635h52v11h-52v-11z" inkscape:connector-curvature="0"/>
    </clipPath>
    <clipPath id="clipPath38">
      <path id="path40" d="m0 0h52v11h-52v-11z" inkscape:connector-curvature="0"/>
    </clipPath>
    <radialGradient id="radialGradient68" gradientUnits="userSpaceOnUse" cy="20.597" cx="74.178" gradientTransform="matrix(.79992 -.00864 .00864 .79992 -.35736 134.57)" r="72.654">
      <stop id="stop70" style="stop-color:#2a1624" offset="0"/>
      <stop id="stop72" style="stop-color:#18b0b5" offset="1"/>
    </radialGradient>
    <linearGradient id="linearGradient86" y2="95.28" gradientUnits="userSpaceOnUse" x2="41.362" gradientTransform="matrix(.26128 .75616 .75616 -.26128 -.000038795 167.52)" y1="95.28" x1="-227.95">
      <stop id="stop88" style="stop-color:#242224" offset="0"/>
      <stop id="stop90" style="stop-color:#27252e" offset=".2392"/>
      <stop id="stop92" style="stop-color:#302e49" offset=".63920"/>
      <stop id="stop94" style="stop-color:#3a3866" offset="1"/>
    </linearGradient>
    <radialGradient id="radialGradient108" gradientUnits="userSpaceOnUse" cy="12.296" cx="74.438" gradientTransform="matrix(.79992 -.00864 .00864 .79992 -.21264 147.85)" r="70.529">
      <stop id="stop110" style="stop-color:#2a1624" offset="0"/>
      <stop id="stop112" style="stop-color:#006986" offset="1"/>
    </radialGradient>
    <radialGradient id="radialGradient126" gradientUnits="userSpaceOnUse" cy="-2.981" cx="94.673" gradientTransform="matrix(.79992 -.00872 .00872 .79992 .052076 172.29)" r="92.993">
      <stop id="stop128" style="stop-color:#9ef0e3" offset="0"/>
      <stop id="stop130" style="stop-color:#93ece3" offset=".0431"/>
      <stop id="stop132" style="stop-color:#6bdfe3" offset=".2157"/>
      <stop id="stop134" style="stop-color:#5cdae3" offset="0.302"/>
      <stop id="stop136" style="stop-color:#3ec7dd" offset=".46670"/>
      <stop id="stop138" style="stop-color:#1cb1d5" offset=".69020"/>
      <stop id="stop140" style="stop-color:#08a3d1" offset=".87840"/>
      <stop id="stop142" style="stop-color:#009ecf" offset="1"/>
    </radialGradient>
    <radialGradient id="radialGradient156" gradientUnits="userSpaceOnUse" cy="97.807" cx="85.59" gradientTransform="matrix(.79992 -.00888 .00888 .79992 -1.7346 11.04)" r="21.426">
      <stop id="stop158" style="stop-color:#2a1624" offset="0"/>
      <stop id="stop160" style="stop-color:#006986" offset="1"/>
    </radialGradient>
    <radialGradient id="radialGradient174" gradientUnits="userSpaceOnUse" cy="92.942" cx="95.293" gradientTransform="matrix(.79992 -.00896 .00896 .79992 -1.6592 18.824)" r="23.527">
      <stop id="stop176" style="stop-color:#9ef0e3" offset="0"/>
      <stop id="stop178" style="stop-color:#93ece3" offset=".0431"/>
      <stop id="stop180" style="stop-color:#6bdfe3" offset=".2157"/>
      <stop id="stop182" style="stop-color:#5cdae3" offset="0.302"/>
      <stop id="stop184" style="stop-color:#3ec7dd" offset=".46670"/>
      <stop id="stop186" style="stop-color:#1cb1d5" offset=".69020"/>
      <stop id="stop188" style="stop-color:#08a3d1" offset=".87840"/>
      <stop id="stop190" style="stop-color:#009ecf" offset="1"/>
    </radialGradient>
  </defs>
  <g id="g10" transform="matrix(1.25 0 0 -1.25 0 209.4)">
    <g id="g12">
      <g id="g14">
        <g id="g30" mask="url(#mask22)">
          <g id="g42">
            <g id="g44" clip-path="url(#clipPath34)">
              <g id="g46" transform="translate(0 -.47635)">
                <g id="g50">
                  <g id="g52" clip-path="url(#clipPath38)">
                    <g id="g54">
                      <path id="path56" style="fill-rule:evenodd;fill:#0d5069" d="m51.52 7.801c-1.465-1.52-3.282-2.496-5.442-2.922-1.68-0.32-3.797-0.32-6.359 0 1.254-0.613 2.32-1.574 3.203-2.879-1.203 0.453-2.363 0.734-3.481 0.84-0.828 0.055-2 0.039-3.519-0.039-1.067-0.082-2.254-0.293-3.563-0.641-1.437-0.398-2.586-0.695-3.437-0.879-1.949-0.402-3.867-0.469-5.762-0.203-2.187 0.481-3.734 0.762-4.64 0.844-1.52 0.105-2.825-0.375-3.918-1.442 0 0.801 0.078 1.415 0.238 1.84 0.16 0.426 0.48 0.918 0.961 1.481-2.481 0.398-4.215 0.531-5.199 0.398-2.457-0.531-4.204-0.851-5.243-0.961-1.707-0.16-3.359 0.16-4.961 0.961 0.747-0.027 1.414 0.039 2 0.199 0.43 0.11 1.055 0.364 1.883 0.762 1.574 0.774 4.371 1.719 8.399 2.84-0.453 0.348-1.106 0.559-1.961 0.641-0.957 0.027-1.664 0.078-2.117 0.16-1.414 0.187-2.696 0.652-3.84 1.398 0.636-0.238 1.597-0.187 2.879 0.16 1.066 0.266 1.906 0.426 2.519 0.481 0.852 0.082 1.695 0.015 2.52-0.199 0.695-0.188 1.894-0.602 3.601-1.243 0.531-0.21 1.051-0.32 1.559-0.32 0.082 0 0.629 0.027 1.64 0.082 1.895 0.078 4.758 0.039 8.598-0.121 5.121 0 9.961-0.227 14.524-0.68 1.171-0.105 2.613-0.398 4.32-0.879 1.492-0.32 3.023-0.214 4.598 0.321z" inkscape:connector-curvature="0"/>
                    </g>
                  </g>
                </g>
              </g>
            </g>
          </g>
        </g>
      </g>
      <g id="g58">
        <g id="g60">
          <g id="g66">
            <path id="path74" style="fill-rule:evenodd;fill:url(#radialGradient68)" d="m67.199 138.56c4.133 2.64 8.469 3.109 13 1.402 3.84-1.441 6.481-3.64 7.922-6.601 2.156-4.321 5.664-9.2 10.52-14.641 0.691-0.773 1.48-1.652 2.359-2.637 0.586-0.828 0.934-1.922 1.039-3.281 0.133-1.652-0.238-2.988-1.117-4-0.988-1.121-2.188-1.254-3.602-0.402-0.293 0.187-0.386 0.507-0.281 0.961 0.055 0.375-0.117 0.535-0.519 0.48-0.614-0.078-1.188-0.547-1.719-1.398-0.535-0.907-1.266-1.442-2.199-1.602-0.508-0.078-1.067 0.293-1.68 1.121-0.457 0.664-1.043 0.641-1.762-0.082-0.883-1.172-1.535-1.957-1.961-2.359-0.664-0.641-1.613-0.813-2.84-0.52-0.347 0.082-1.214 0.586-2.597 1.52-1.043 0.718-1.961 0.945-2.762 0.679-0.613-0.183-1.16-0.894-1.641-2.117-0.64-1.656-1.011-2.562-1.121-2.722-1.039-1.493-2-2.067-2.879-1.719-1.121 0.879-2.105 1.625-2.961 2.238-1.546 1.094-2.746 0.961-3.597-0.398-0.535-0.856-1.547-2.602-3.039-5.243-1.414-1.73-2.84-2.023-4.282-0.878-0.558 0.453-1.761 2-3.601 4.64-0.531 0.879-0.957 1.559-1.281 2.039-0.559 0.883-1.106 1.414-1.637 1.602-0.91 0.375-1.961 0.066-3.16-0.922-1.281-1.066-2.348-1.531-3.203-1.398-0.453 0.054-1.012 0.375-1.68 0.96-0.453 0.372-1.039 0.372-1.758 0-0.215-0.109-0.988-1.175-2.32-3.199-0.961-1.469-2.039-1.844-3.242-1.121-0.637 0.348-1.172 1.32-1.598 2.918-0.375 1.442-1.121 2.27-2.242 2.481-0.32 0.054-0.906-0.051-1.758-0.321-0.695-0.238-1.266-0.183-1.723 0.16-0.453 0.348-0.718 0.95-0.797 1.801 0 0.961-0.015 1.641-0.042 2.039-0.266 2.856-1.161 3.68-2.68 2.481-0.852-0.664-2.16-2-3.918-4-2.668-2.16-4.547-2.371-5.641-0.641-0.828 1.336-1.121 3.563-0.879 6.68 0.293 3.23-0.84 4.508-3.402 3.84-1.52-0.504-2.664-0.864-3.438-1.078-1.386-0.399-2.453-0.454-3.203-0.161-2.183 0.856-2.515 2.653-0.996 5.399 2.211 2.988 3.625 4.906 4.239 5.762 1.949 2.695 3.867 5.851 5.761 9.48 1.305 2.48 2.907 5.824 4.797 10.039 1.734 3.867 4.469 7.586 8.203 11.16 2.051 1.946 4.824 4.348 8.321 7.199 0.906 0.856 2.664-0.199 5.277-3.16 0.348-0.398 3.082-3.867 8.199-10.398 3.707-4.719 6.734-8.055 9.082-10 3.305-2.695 5.988-3.387 8.039-2.082z" inkscape:connector-curvature="0"/>
          </g>
        </g>
      </g>
      <g id="g76">
        <g id="g78">
          <g id="g84">
            <path id="path96" style="fill-rule:evenodd;fill:url(#linearGradient86)" d="m63.441 110.12c0.161-1.789-0.109-3.906-0.8-6.359-0.426-1.574-1.243-3.082-2.442-4.524-0.664-0.824-1.758-2.117-3.277-3.878-0.961-1.332-1.457-3.028-1.484-5.079-0.024-0.828 0.121-2.613 0.441-5.359 0.426-3.336 0.668-7.348 0.719-12.043 0.027-2.348-0.039-5.293-0.2-8.84-0.132-2.718-0.171-4.066-0.121-4.039 1.629 0.371 3.348 1.293 5.161 2.758 1.816 1.496 3.253 3.176 4.32 5.043 1.68 3.012 2.293 5.719 1.84 8.117-0.184 1.043-0.399 1.961-0.637 2.762l-0.281 0.879c0.398 0.32 0.879 0.629 1.441 0.922 1.117 0.613 2.051 0.84 2.797 0.679 0.773-0.16 1.109-1.054 1-2.679-0.051-0.668-0.426-2.868-1.117-6.602-0.613-3.308-1.336-5.851-2.16-7.641-1.149-2.507-2.989-4.945-5.52-7.32-0.641-0.586-2.359-1.879-5.16-3.879-2.27-1.574-3.801-2.961-4.602-4.16-4.828-7.066-7.332-10.758-7.519-11.082-2.586-4.426-4.078-8.598-4.481-12.516-0.054-0.535-0.132-2.484-0.238-5.843-0.055-2.371-0.293-4.317-0.723-5.84-0.371-1.305-0.597-2.067-0.679-2.277-0.344-0.883-0.797-1.59-1.36-2.122 1.121 0.106 2.188 0 3.2-0.32 0.613-0.187 1.668-0.547 3.16-1.082 1.386-0.398 2.508-0.637 3.359-0.719 1.176-0.105 2.336-0.023 3.481 0.243-0.934-0.454-1.664-0.79-2.2-1-0.906-0.375-1.652-0.602-2.238-0.68-1.254-0.16-2.855-0.16-4.801 0-2.187 0.157-3.734 0.212-4.64 0.157-1.012-0.051-1.575-0.09-1.68-0.117-0.293-0.055-0.734-0.242-1.32-0.559 1.039 0.239 2.105 0.067 3.199-0.523 0.613-0.317 1.508-0.891 2.68-1.719-1.704 0.32-2.891 0.52-3.559 0.602-1.094 0.16-2.027 0.187-2.801 0.078-3.519-0.399-6.465-0.84-8.84-1.317-1.039-0.214-3.078-0.226-6.121-0.043-2.05 0.133-3.383-0.265-4-1.199 0.028 0.586 0.137 1.016 0.321 1.281 0.136 0.239 0.507 0.575 1.121 1 0.668 0.481 1.988 0.84 3.961 1.079-1.227-0.106-2.989 0.027-5.282 0.402-2.398 0.371-4.226 0.531-5.48 0.48-0.32-0.027-1.957-0.558-4.918-1.601-2.055-0.719-3.707-0.586-4.961 0.402 1.574-0.375 2.934-0.203 4.078 0.52 1.254 1.039 2.402 1.797 3.442 2.277 1.015 0.481 2.292 0.695 3.839 0.641 1.973-0.078 3.149-0.094 3.52-0.039-0.481 0.48-1.078 0.933-1.801 1.359-0.773 0.453-1.465 0.734-2.078 0.84-0.348 0.055-1.508-0.067-3.48-0.36-1.575-0.214-2.547-0.05-2.918 0.481 0.691-0.16 1.543 0.027 2.558 0.559 1.465 0.8 2.348 1.242 2.641 1.32 0.933 0.293 1.945 0.32 3.039 0.082 1.015-0.215 1.773-0.199 2.281 0.039-0.535 2.453-0.84 4.238-0.922 5.359-0.16 1.762-0.027 3.547 0.403 5.36 1.199 5.148 4.531 10.707 10 16.679 1.386 1.496 3.57 3.723 6.558 6.684 2.906 2.824 5.012 4.973 6.32 6.437 8.375 9.282 11.825 22.481 10.36 39.602-0.16 1.895-0.68 3.52-1.559 4.879-0.562 0.828-1.574 1.922-3.043 3.281-3.304 3.067-5.531 6.453-6.679 10.16-0.504 1.254-0.797 2.145-0.879 2.68-0.106 0.934 0.425 1.48 1.601 1.641-0.187-0.028 0.344-1.243 1.598-3.641 1.226-2.32 1.988-3.652 2.281-4 2.426-2.906 5.012-4.801 7.762-5.68 0.613-0.402 0.879 0.426 0.797 2.481-0.106 2.957-0.117 4.652-0.039 5.078 0.242 1.359 0.879 2.48 1.922 3.359 1.199 1.043 2.238 0.84 3.117-0.597 0.453-0.696 0.492-1.641 0.121-2.84-0.215-0.668-0.547-1.613-1-2.84-0.453-2.293-0.414-4.254 0.121-5.883 0.371-1.117 1.199-1.277 2.477-0.476 1.07 0.664 1.976 1.597 2.722 2.796 1.758 2.883 2.68 5.547 2.758 8 0.535 0.079 1.043 0.024 1.523-0.16z" inkscape:connector-curvature="0"/>
          </g>
        </g>
      </g>
      <g id="g98">
        <g id="g100">
          <g id="g106">
            <path id="path114" style="fill-rule:evenodd;fill:url(#radialGradient108)" d="m67.039 140.28c4.133 2.665 8.469 3.145 13 1.438 3.84-1.438 6.481-3.637 7.922-6.598 2.105-4.242 5.613-9.133 10.519-14.679 2.079-2.348 3.399-4.934 3.958-7.762 0.617-2.961 0.054-4.785-1.68-5.481-1.57-0.64-2.946-0.437-4.117 0.602-0.75 0.613-1.508 1.707-2.282 3.281-0.613 1.199-0.988 1.84-1.121 1.918-0.183 0.106-0.519-0.254-1-1.078-0.398-0.773-1.093-1.027-2.078-0.762-0.453 0.133-1.109 0.453-1.961 0.961-0.133 0.078-0.238-0.64-0.32-2.16-0.106-1.812-0.668-2.906-1.68-3.281-1.172-0.426-2.64 0-4.398 1.281-1.547 1.145-2.696 2.399-3.442 3.758-0.746 1.363-1.226 2.055-1.441 2.082-0.348 0-0.785-1.066-1.32-3.199-0.532-2.11-1.52-3.547-2.957-4.321-1.203-0.64-2.282-0.668-3.243-0.082-0.187 0.106-0.984 0.829-2.398 2.161-0.828 0.746-1.309 0.867-1.441 0.359-0.106-0.453-0.121-1.504-0.039-3.16-0.133-1.598-0.801-2.797-2-3.598-2.321-1.519-5.161-0.16-8.52 4.078-0.988 1.282-1.879 1.774-2.68 1.481-0.375-0.133-1.199-0.824-2.48-2.078-0.856-0.856-1.652-0.961-2.402-0.321-0.399 0.371-0.934 1.211-1.598 2.52-0.535 0.984-1.535 0.894-3-0.281-1.762-1.414-3.082-1.934-3.961-1.559-0.16 0.078-0.309 0.332-0.441 0.758-0.106 0.375-0.387 0.574-0.84 0.601-0.188 0-0.426-0.238-0.719-0.718-0.293-0.508-0.574-0.789-0.84-0.84-1.387-0.215-2.508 0.918-3.359 3.398-0.27 1.653-0.508 3-0.723 4.039-0.426 1.949-1.027 3.016-1.797 3.199-0.695 0.188-1.855-0.89-3.48-3.238-1.735-2.508-3.16-3.828-4.282-3.961-1.652-0.183-2.453 1.028-2.398 3.641 0.023 0.851 0.32 2.84 0.879 5.961 0.293 1.519 0.199 2.508-0.281 2.961-0.586 0.558-1.664 0.199-3.239-1.082-2.75-2.239-4.8-3.719-6.16-4.438-2.613-1.441-4.722-1.683-6.32-0.722-1.652 0.988-1.906 2.812-0.762 5.48 0.91 2.106 2.281 4.066 4.121 5.879 1.336 1.363 3.11 4.043 5.321 8.043 2.109 3.785 4.226 8.066 6.363 12.84 1.73 3.84 4.465 7.547 8.199 11.117 2.051 1.949 4.824 4.348 8.32 7.203 0.907 0.852 2.664-0.203 5.278-3.16 0.347-0.402 3.082-3.867 8.203-10.402 3.703-4.719 6.73-8.051 9.078-10 3.309-2.692 5.988-3.387 8.039-2.079z" inkscape:connector-curvature="0"/>
          </g>
        </g>
      </g>
      <g id="g116">
        <g id="g118">
          <g id="g124">
            <path id="path144" style="fill-rule:evenodd;fill:url(#radialGradient126)" d="m90.641 132.32c0.906-1.575 2.011-3.239 3.32-5 0.906-1.227 1.414-2.083 1.519-2.559 0.133-0.723-0.093-1.297-0.679-1.723-0.563-0.398-1.11-0.492-1.641-0.277-0.883 0.32-1.215-0.402-1-2.16 0.051-0.668-0.148-0.949-0.601-0.84-0.454 0.133-1.012 0.586-1.68 1.359-1.016 1.172-1.719 1.918-2.121 2.239-0.824 0.64-1.531 0.746-2.117 0.32-1.68-1.281-3.309-1.149-4.883 0.402-1.067 0.985-1.824 1.531-2.281 1.637-0.637 0.137-0.973-0.398-1-1.598-0.024-1.414-0.586-2.48-1.68-3.199-1.145-0.723-2.293-0.59-3.438 0.399-2.32 2-3.613 3.078-3.882 3.238-1.2 0.75-2.012 0.574-2.438-0.52-0.32-0.746-0.535-1.547-0.641-2.398-0.214-1.785-0.347-2.867-0.402-3.242-0.504-3.012-1.73-4.559-3.68-4.637-1.066-0.055-2.546 0.879-4.441 2.797-2.371 2.429-3.746 3.75-4.117 3.961-1.121 0.668-2.215 0.855-3.281 0.562-1.012-0.242-2.161-0.961-3.438-2.16-1.309-1.226-2.652-1.75-4.043-1.562-1.465 0.214-2.344 1.199-2.637 2.961-0.402 2.375-0.629 3.64-0.683 3.8-0.184 0.614-0.547 0.692-1.078 0.239-0.989-0.852-2.094-1.387-3.321-1.598-1.707-0.297-2.734 0.437-3.078 2.199-0.215 1.121-0.281 3.094-0.203 5.918 0.055 2.027-0.172 3.121-0.68 3.281-1.679 0.536-4.304-0.613-7.878-3.441-3.067-2.453-4.829-3.824-5.282-4.117-2.078-1.364-3.492-1.68-4.238-0.961-0.668 0.64-0.668 1.664 0 3.078 0.906 1.894 1.359 3.148 1.359 3.762 0 0.238-0.519-0.176-1.558-1.243-1.067-1.066-1.614-1.277-1.641-0.636-0.027 0.957 0.586 2.504 1.84 4.636 1.625 2.618 2.824 4.641 3.602 6.083 1.839 3.917 3.519 7.226 5.039 9.917 2.8 5.043 5.773 9.043 8.918 12 3.628 3.415 7.359 4.79 11.199 4.122 3.226-0.586 6.683-2.653 10.363-6.2 0.852-0.828 2.293-2.922 4.32-6.281 2.293-3.84 3.852-6.293 4.68-7.359 1.438-1.813 2.625-2.879 3.559-3.199 0.851-0.293 1.785 0.027 2.8 0.96 2.028 1.868 3.664 3.051 4.918 3.559 2.774 1.148 5.559 0.746 8.36-1.199 2.402-1.68 4.562-4.336 6.48-7.961 1.016-1.945 2.176-4.399 3.485-7.359z" inkscape:connector-curvature="0"/>
          </g>
        </g>
      </g>
      <g id="g146">
        <g id="g148">
          <g id="g154">
            <path id="path162" style="fill-rule:evenodd;fill:url(#radialGradient156)" d="m63.801 75.801c-0.801-0.613-1.629-0.773-2.481-0.48-1.761 0.585-1.629 2.679 0.399 6.281 0.933 1.707 3.719 2.226 8.359 1.558 4.508-0.668 7.309-1.8 8.402-3.398 0.958-1.387 1.481-2.547 1.559-3.481 0.082-0.773-0.16-1.242-0.719-1.402-0.453-0.16-1.226 0.121-2.32 0.84-0.801 0.508-1.215 0.43-1.238-0.238 0-0.883-0.375-1.453-1.121-1.719-0.746-0.27-1.481-0.066-2.2 0.598-0.906 0.882-1.535 1.468-1.882 1.761-0.559 0.453-0.946 0.532-1.161 0.239-0.293-0.399-0.679-0.719-1.16-0.961-0.558-0.293-0.984-0.293-1.277 0-0.109 0.136-0.309 0.656-0.602 1.562-0.16 0.613-0.437 0.758-0.839 0.438-0.321-0.266-0.895-0.797-1.719-1.598z" inkscape:connector-curvature="0"/>
          </g>
        </g>
      </g>
      <g id="g164">
        <g id="g166">
          <g id="g172">
            <path id="path192" style="fill-rule:evenodd;fill:url(#radialGradient174)" d="m68.641 96.321c2.586 0.718 4.453-0.536 5.597-3.762 0.617-1.731 1.188-4.199 1.723-7.399 0.293-0.906 0.867-2.093 1.719-3.558 0.668-1.121 0.961-1.789 0.879-2-0.133-0.375-0.348-0.563-0.637-0.563-0.297 0.028-0.723 0.242-1.281 0.641-0.641 0.613-1.094 1.016-1.364 1.203-0.425 0.289-0.812 0.238-1.156-0.16-0.242-0.293-0.613-0.293-1.121 0-0.398 0.183-0.773 0.465-1.121 0.84-0.211 0.211-0.52 0.172-0.918-0.121-0.238-0.188-0.746-0.641-1.52-1.36-0.48-0.426-1.015-0.469-1.601-0.121-0.453 0.242-0.879 0.68-1.278 1.32-0.242 0.375-0.734 0.375-1.484 0-1.066-0.558-1.703-0.851-1.918-0.878-0.691-0.082-1.133 0.039-1.32 0.359-0.266 0.371-0.199 1.066 0.199 2.078 1.149 2.402 2.055 4.59 2.723 6.563 0.961 2.8 1.453 4.238 1.48 4.32 0.664 1.465 1.465 2.332 2.399 2.598z" inkscape:connector-curvature="0"/>
          </g>
        </g>
      </g>
      <path id="path194" style="fill-rule:evenodd;fill:#9ef0e3" d="m34.68 165.68c1.359 0.48 2.425 0.558 3.199 0.242 0.773-0.32 0.828-0.734 0.16-1.242-0.824-0.641-1.734-1.199-2.719-1.68-1.359-0.64-2.601-0.984-3.718-1.039-1.176-0.055-1.243 0.453-0.204 1.52 1.016 1.039 2.11 1.773 3.282 2.199z" inkscape:connector-curvature="0"/>
      <path id="path196" style="fill-rule:evenodd;fill:#9ef0e3" d="m42.801 163.84c-0.106 0.773 0.734 0.879 2.519 0.32 1.813-0.558 2.535-1.132 2.16-1.718-0.347-0.563-1.199-0.602-2.558-0.121-1.363 0.48-2.067 0.984-2.121 1.519z" inkscape:connector-curvature="0"/>
      <path id="path198" style="fill-rule:evenodd;fill:#9ef0e3" d="m39.359 166.24c0.696 0.375 1.469 0.321 2.321-0.156 0.906-0.48 0.879-0.761-0.078-0.844-0.723-0.05-1.309 0.094-1.762 0.442l-0.481 0.558z" inkscape:connector-curvature="0"/>
      <path id="path200" style="fill-rule:evenodd;fill:#9ef0e3" d="m49.641 160.8 0.48-0.359c0.371-0.321 0.691-0.696 0.957-1.121 0.402-0.586 0.641-1.133 0.723-1.641 0.078-0.559-0.176-0.652-0.762-0.281-0.641 0.402-1.144 1.082-1.519 2.043-0.399 0.984-0.36 1.437 0.121 1.359z" inkscape:connector-curvature="0"/>
      <path id="path202" style="fill-rule:evenodd;fill:#9ef0e3" d="m32.879 159.8c0.828-0.348 0.816-0.734-0.039-1.16-0.879-0.426-1.695-0.586-2.442-0.481-0.796 0.133-0.796 0.508 0 1.121 0.829 0.665 1.657 0.84 2.481 0.52z" inkscape:connector-curvature="0"/>
      <path id="path204" style="fill-rule:evenodd;fill:#9ef0e3" d="m37.84 162.16c1.121 0.239 2.293 0.227 3.519-0.039 1.094-0.242 1.895-0.601 2.403-1.082 0.426-0.426 0.25-0.785-0.524-1.078-0.718-0.265-1.543-0.359-2.476-0.281-0.961 0.082-1.907 0.453-2.84 1.121-0.988 0.691-1.016 1.145-0.082 1.359z" inkscape:connector-curvature="0"/>
      <path id="path206" style="fill-rule:evenodd;fill:#cff0ed" d="m73.078 147.76c1.016 0.16 1.242 0 0.684-0.481-0.563-0.48-1.27-0.8-2.121-0.96-0.829-0.133-0.985 0.039-0.481 0.519 0.508 0.508 1.149 0.813 1.918 0.922z" inkscape:connector-curvature="0"/>
      <path id="path208" style="fill-rule:evenodd;fill:#cff0ed" d="m76.801 148.72c1.254-0.293 2.16-0.664 2.719-1.117 0.347-0.27 0.734-0.668 1.16-1.203 0.425-0.426 0.32-0.614-0.321-0.559-0.668 0.055-1.531 0.359-2.597 0.922-1.016 0.531-1.574 1.027-1.684 1.476-0.078 0.458 0.16 0.618 0.723 0.481z" inkscape:connector-curvature="0"/>
      <path id="path210" style="fill-rule:evenodd;fill:#cff0ed" d="m75.32 145.64c2.399-0.32 3.481-0.785 3.239-1.403-0.266-0.664-1.079-0.851-2.438-0.558-1.066 0.242-1.641 0.652-1.723 1.242-0.105 0.559 0.204 0.797 0.922 0.719z" inkscape:connector-curvature="0"/>
      <path id="path212" style="fill-rule:evenodd;fill:#cff0ed" d="m82.238 143.8c1.149-0.508 1.817-1.105 2-1.801 0.16-0.64-0.023-0.961-0.558-0.961-0.399 0-0.868 0.52-1.399 1.563-0.535 1.011-0.547 1.414-0.043 1.199z" inkscape:connector-curvature="0"/>
      <path id="path214" style="fill-rule:evenodd;fill:#9ef0e3" d="m29.359 143.36c-0.054-0.344-0.254-0.493-0.597-0.438-0.137 0-0.254 0.051-0.364 0.16-0.105 0.133-0.144 0.266-0.117 0.399 0 0.132 0.051 0.238 0.16 0.32 0.133 0.105 0.266 0.145 0.399 0.121 0.348 0 0.519-0.187 0.519-0.562z" inkscape:connector-curvature="0"/>
      <path id="path216" style="fill-rule:evenodd;fill:#9ef0e3" d="m29.68 140.12c-0.055-0.508-0.332-0.734-0.84-0.679-0.215 0-0.387 0.078-0.52 0.238-0.16 0.16-0.226 0.348-0.199 0.558 0 0.188 0.078 0.364 0.238 0.524 0.188 0.133 0.387 0.184 0.602 0.16 0.211-0.027 0.398-0.121 0.559-0.281 0.132-0.16 0.187-0.336 0.16-0.52z" inkscape:connector-curvature="0"/>
      <path id="path218" style="fill-rule:evenodd;fill:#9ef0e3" d="m25.961 139.12c-0.055-0.425-0.309-0.64-0.762-0.64-0.187 0.027-0.344 0.105-0.48 0.238-0.133 0.137-0.184 0.297-0.16 0.48 0 0.188 0.082 0.336 0.242 0.442 0.133 0.133 0.293 0.199 0.48 0.199 0.453-0.055 0.68-0.293 0.68-0.719z" inkscape:connector-curvature="0"/>
      <path id="path220" style="fill-rule:evenodd;fill:#9ef0e3" d="m27.359 137.2c0-0.293-0.187-0.437-0.558-0.437-0.321 0.051-0.481 0.226-0.481 0.519 0.055 0.344 0.239 0.493 0.559 0.438 0.133 0 0.254-0.051 0.359-0.16 0.11-0.106 0.149-0.227 0.121-0.36z" inkscape:connector-curvature="0"/>
      <path id="path222" style="fill-rule:evenodd;fill:#9ef0e3" d="m23.559 135.56c-0.051-0.531-0.36-0.797-0.918-0.797-0.243 0.027-0.426 0.133-0.563 0.32-0.156 0.184-0.223 0.383-0.199 0.598 0 0.242 0.094 0.441 0.281 0.601 0.188 0.161 0.387 0.227 0.602 0.2 0.238-0.028 0.437-0.121 0.597-0.282 0.161-0.183 0.227-0.398 0.2-0.64z" inkscape:connector-curvature="0"/>
      <path id="path224" style="fill-rule:evenodd;fill:#9ef0e3" d="m32.32 137.8c-0.027-0.188-0.105-0.348-0.242-0.48-0.156-0.133-0.332-0.188-0.519-0.161-0.426 0.055-0.637 0.305-0.637 0.762 0.023 0.184 0.117 0.344 0.277 0.477 0.133 0.136 0.293 0.187 0.481 0.16 0.48-0.051 0.695-0.305 0.64-0.758z" inkscape:connector-curvature="0"/>
      <path id="path226" style="fill-rule:evenodd;fill:#9ef0e3" d="m80.52 129.08c-0.028-0.242-0.122-0.429-0.282-0.562-0.183-0.16-0.386-0.227-0.597-0.199-0.215 0.027-0.403 0.121-0.563 0.281-0.156 0.183-0.226 0.386-0.199 0.597 0.027 0.215 0.121 0.403 0.281 0.563 0.188 0.16 0.387 0.226 0.602 0.199 0.211-0.027 0.398-0.121 0.558-0.281 0.16-0.188 0.227-0.387 0.2-0.598z" inkscape:connector-curvature="0"/>
      <path id="path228" style="fill-rule:evenodd;fill:#9ef0e3" d="m83.359 131.28c0-0.265-0.148-0.402-0.437-0.402-0.27 0.055-0.402 0.215-0.402 0.481 0.054 0.293 0.214 0.414 0.48 0.359 0.293 0 0.414-0.145 0.359-0.438z" inkscape:connector-curvature="0"/>
      <path id="path230" style="fill-rule:evenodd;fill:#c4f0e3" d="m84.719 132.76c0-0.137-0.078-0.203-0.239-0.203-0.16 0-0.242 0.082-0.242 0.242s0.094 0.238 0.282 0.238c0.132 0 0.199-0.093 0.199-0.277z" inkscape:connector-curvature="0"/>
      <path id="path232" style="fill-rule:evenodd;fill:#c4f0e3" d="m87.52 127.96c-0.028-0.265-0.133-0.48-0.321-0.64-0.187-0.161-0.414-0.227-0.679-0.2-0.266 0.028-0.481 0.133-0.641 0.321-0.188 0.183-0.266 0.414-0.238 0.679 0.023 0.266 0.132 0.481 0.32 0.641 0.184 0.184 0.41 0.266 0.68 0.238 0.265-0.027 0.48-0.148 0.636-0.359 0.188-0.188 0.27-0.414 0.243-0.68z" inkscape:connector-curvature="0"/>
      <path id="path234" style="fill-rule:evenodd;fill:#c4f0e3" d="m89.641 128.76c-0.055-0.43-0.266-0.613-0.641-0.563-0.426 0.055-0.613 0.266-0.559 0.641 0 0.188 0.067 0.332 0.2 0.441 0.132 0.106 0.281 0.145 0.437 0.118 0.16 0 0.297-0.067 0.402-0.2 0.133-0.132 0.188-0.277 0.161-0.437z" inkscape:connector-curvature="0"/>
      <path id="path236" style="fill-rule:evenodd;fill:#c4f0e3" d="m87.441 130.72c-0.054-0.211-0.175-0.32-0.363-0.32-0.211 0.054-0.316 0.175-0.316 0.363 0 0.211 0.117 0.32 0.359 0.32 0.211 0 0.32-0.121 0.32-0.363z" inkscape:connector-curvature="0"/>
      <path id="path238" style="fill-rule:evenodd;fill:#9ef0e3" d="m83.52 128.76c-0.055-0.43-0.282-0.613-0.68-0.563-0.188 0-0.332 0.067-0.442 0.2-0.132 0.136-0.187 0.297-0.16 0.48 0.055 0.426 0.282 0.613 0.684 0.563 0.398 0 0.598-0.227 0.598-0.68z" inkscape:connector-curvature="0"/>
      <path id="path240" style="fill-rule:evenodd;fill:#c4f0e3" d="m87.641 133.68c0-0.188-0.106-0.281-0.321-0.281-0.211 0-0.32 0.109-0.32 0.32 0 0.187 0.109 0.281 0.32 0.281 0.215 0 0.321-0.105 0.321-0.32z" inkscape:connector-curvature="0"/>
      <path id="path242" style="fill-rule:evenodd;fill:#c4f0e3" d="m84.68 135.48c0-0.16-0.051-0.293-0.16-0.399-0.133-0.109-0.282-0.148-0.442-0.121-0.371 0-0.558 0.199-0.558 0.598 0.054 0.375 0.269 0.562 0.64 0.562 0.399-0.054 0.574-0.265 0.52-0.64z" inkscape:connector-curvature="0"/>
    </g>
  </g>
<metadata><rdf:RDF><cc:Work><dc:format>image/svg+xml</dc:format><dc:type rdf:resource="http://purl.org/dc/dcmitype/StillImage"/><cc:license rdf:resource="http://creativecommons.org/licenses/publicdomain/"/><dc:publisher><cc:Agent rdf:about="http://openclipart.org/"><dc:title>Openclipart</dc:title></cc:Agent></dc:publisher></cc:Work><cc:License rdf:about="http://creativecommons.org/licenses/publicdomain/"><cc:permits rdf:resource="http://creativecommons.org/ns#Reproduction"/><cc:permits rdf:resource="http://creativecommons.org/ns#Distribution"/><cc:permits rdf:resource="http://creativecommons.org/ns#DerivativeWorks"/></cc:License></rdf:RDF></metadata></svg>