<?xml version="1.0" encoding="UTF-8" standalone="no"?>
<!-- Created with Inkscape (http://www.inkscape.org/) -->
<svg xmlns:inkscape="http://www.inkscape.org/namespaces/inkscape" xmlns:rdf="http://www.w3.org/1999/02/22-rdf-syntax-ns#" xmlns="http://www.w3.org/2000/svg" xmlns:xlink="http://www.w3.org/1999/xlink" xmlns:ns1="http://sozi.baierouge.fr" xmlns:cc="http://creativecommons.org/ns#" xmlns:sodipodi="http://sodipodi.sourceforge.net/DTD/sodipodi-0.dtd" xmlns:dc="http://purl.org/dc/elements/1.1/" id="svg2" xml:space="preserve" viewBox="0 0 160.06 181.6" version="1.1" inkscape:version="0.91 r13725">
  <defs id="defs6">
    <clipPath id="clipPath18">
      <path id="path20" d="m42-0.72156h54v12h-54v-12z" inkscape:connector-curvature="0"/>
    </clipPath>
    <mask id="mask22">
      <g id="g24">
        <g id="g26" clip-path="url(#clipPath18)">
          <path id="path28" style="fill:#000000;fill-opacity:.46880" d="m42-0.72156h54v12h-54v-12z" inkscape:connector-curvature="0"/>
        </g>
      </g>
    </mask>
    <clipPath id="clipPath34">
      <path id="path36" d="m42-0.72156h54v12h-54v-12z" inkscape:connector-curvature="0"/>
    </clipPath>
    <clipPath id="clipPath38">
      <path id="path40" d="m42 0h54v12h-54v-12z" inkscape:connector-curvature="0"/>
    </clipPath>
    <radialGradient id="radialGradient68" gradientUnits="userSpaceOnUse" cy="22.115" cx="76.895" gradientTransform="matrix(.79992 -.00872 .00408 .37672 -.29182 119.26)" r="105.93">
      <stop id="stop70" style="stop-color:#2a1624" offset="0"/>
      <stop id="stop72" style="stop-color:#18b0b5" offset="1"/>
    </radialGradient>
    <linearGradient id="linearGradient86" y2="-106.42" gradientUnits="userSpaceOnUse" x2="165.79" gradientTransform="matrix(-.0348 -.79928 -.80016 .01368 -.0082788 145.28)" y1="-106.42" x1="112.89">
      <stop id="stop88" style="stop-color:#3a3866" offset="0"/>
      <stop id="stop90" style="stop-color:#302e49" offset=".3608"/>
      <stop id="stop92" style="stop-color:#27252e" offset=".7608"/>
      <stop id="stop94" style="stop-color:#242224" offset="1"/>
    </linearGradient>
    <linearGradient id="linearGradient108" y2="96.456" gradientUnits="userSpaceOnUse" x2="76.329" gradientTransform="matrix(.8 0 0 -.8 -.0087026 145.28)" y1="186.53" x1="77.854">
      <stop id="stop110" style="stop-color:#242224" offset="0"/>
      <stop id="stop112" style="stop-color:#27252e" offset=".2392"/>
      <stop id="stop114" style="stop-color:#302e49" offset=".63920"/>
      <stop id="stop116" style="stop-color:#3a3866" offset="1"/>
    </linearGradient>
    <radialGradient id="radialGradient130" gradientUnits="userSpaceOnUse" cy="-5.5225" cx="93.846" gradientTransform="matrix(.79992 -.00872 .00528 .48128 .068417 152.36)" r="130.28">
      <stop id="stop132" style="stop-color:#2a1624" offset="0"/>
      <stop id="stop134" style="stop-color:#006986" offset="1"/>
    </radialGradient>
    <radialGradient id="radialGradient148" gradientUnits="userSpaceOnUse" cy="-12.444" cx="105.27" gradientTransform="matrix(.79992 -.00872 .0052 .48128 .16466 161.22)" r="132.18">
      <stop id="stop150" style="stop-color:#9ef0e3" offset="0"/>
      <stop id="stop152" style="stop-color:#93ece3" offset=".0431"/>
      <stop id="stop154" style="stop-color:#6bdfe3" offset=".2157"/>
      <stop id="stop156" style="stop-color:#5cdae3" offset="0.302"/>
      <stop id="stop158" style="stop-color:#3ec7dd" offset=".46670"/>
      <stop id="stop160" style="stop-color:#1cb1d5" offset=".69020"/>
      <stop id="stop162" style="stop-color:#08a3d1" offset=".87840"/>
      <stop id="stop164" style="stop-color:#009ecf" offset="1"/>
    </radialGradient>
    <radialGradient id="radialGradient178" gradientUnits="userSpaceOnUse" cy="81.468" cx="81.838" gradientTransform="matrix(.79992 -.00864 .004 .36856 -1.0402 50.088)" r="50.416">
      <stop id="stop180" style="stop-color:#2a1624" offset="0"/>
      <stop id="stop182" style="stop-color:#006986" offset="1"/>
    </radialGradient>
    <radialGradient id="radialGradient196" gradientUnits="userSpaceOnUse" cy="82.647" cx="102.95" gradientTransform="matrix(.79992 -.00864 .004 .36856 -1.0476 48.704)" r="50.791">
      <stop id="stop198" style="stop-color:#9ef0e3" offset="0"/>
      <stop id="stop200" style="stop-color:#93ece3" offset=".0431"/>
      <stop id="stop202" style="stop-color:#6bdfe3" offset=".2157"/>
      <stop id="stop204" style="stop-color:#5cdae3" offset="0.302"/>
      <stop id="stop206" style="stop-color:#3ec7dd" offset=".46670"/>
      <stop id="stop208" style="stop-color:#1cb1d5" offset=".69020"/>
      <stop id="stop210" style="stop-color:#08a3d1" offset=".87840"/>
      <stop id="stop212" style="stop-color:#009ecf" offset="1"/>
    </radialGradient>
  </defs>
  <g id="g10" transform="matrix(1.25 0 0 -1.25 0 181.6)">
    <g id="g12">
      <g id="g14">
        <g id="g30" mask="url(#mask22)">
          <g id="g42">
            <g id="g44" clip-path="url(#clipPath34)">
              <g id="g46" transform="translate(0 -.72156)">
                <g id="g50">
                  <g id="g52" clip-path="url(#clipPath38)">
                    <g id="g54">
                      <path id="path56" style="fill-rule:evenodd;fill:#0d5069" d="m95.113 4.52c-0.508-0.614-1.175-1.133-2-1.559-0.961-0.481-1.894-0.707-2.801-0.68-0.773 0-1.761 0.199-2.96 0.598-0.774 0.32-1.348 0.562-1.719 0.723-0.668 0.265-1.27 0.425-1.801 0.476-0.961 0.082-1.52 0.121-1.68 0.121-0.722 0.028-1.254-0.066-1.601-0.277-0.531-0.297-0.559-0.734-0.078-1.32 0.265-0.321 0.746-0.79 1.437-1.403-1.387-0.054-2.48-0.121-3.277-0.199-2.801-0.375-5.215-0.375-7.242 0-0.801 0.188-1.399 0.305-1.801 0.359-0.692 0.133-1.305 0.188-1.84 0.161-0.293-0.028-1.305-0.215-3.039-0.559-1.281-0.242-2.293-0.281-3.039-0.121 0.48 0.238 0.812 0.465 1 0.68 0.266 0.32 0.426 0.507 0.48 0.558-0.828-0.449-1.988-0.625-3.48-0.519-0.426 0.027-1.625 0.203-3.602 0.519-0.906 0.137-1.879 0.176-2.918 0.121-0.535-0.054-1.507-0.172-2.922-0.359 1.122 1.281 1.696 1.933 1.723 1.961 0.453 0.426 1.199 0.918 2.238 1.48-0.238 0.078-0.574 0.094-1 0.039-0.64-0.054-0.988-0.082-1.039-0.082-2.828 0-4.933 0.336-6.32 1-1.309 0.563-2.574 0.789-3.801 0.684 0.614 0.453 1.668 0.73 3.16 0.84 0.106 0 0.653-0.016 1.641-0.043 0.664-0.024 1.199 0.015 1.598 0.121 0.457 0.105 1.082 0.387 1.882 0.84 0.801 0.453 1.426 0.734 1.879 0.84 0.454 0.105 1.094 0.082 1.922-0.079 0.825-0.136 1.449-0.175 1.879-0.121 0.481 0.051 1.051 0.188 1.719 0.399 0.402 0.136 0.973 0.32 1.719 0.562 1.761 0.504 4.547 0.758 8.363 0.758 2.664 0 6.664-0.051 12-0.16 1.918 0 4.066-0.16 6.437-0.481 0.668-0.105 1.657-0.332 2.961-0.679 1.145-0.266 2.133-0.211 2.961 0.16-0.906-0.852-2.132-1.481-3.679-1.879-1.149-0.133-1.907-0.266-2.282-0.398 0.106-0.215 0.348-0.387 0.719-0.524 0.535-0.183 0.828-0.293 0.883-0.316 0.078-0.055 0.637-0.453 1.68-1.203 0.64-0.454 1.238-0.774 1.797-0.957 1.308-0.375 2.589-0.403 3.843-0.082z" inkscape:connector-curvature="0"/>
                    </g>
                  </g>
                </g>
              </g>
            </g>
          </g>
        </g>
      </g>
      <g id="g58">
        <g id="g60">
          <g id="g66">
            <path id="path74" style="fill-rule:evenodd;fill:url(#radialGradient68)" d="m99.59 122.76c2.801 0.082 5.16-0.184 7.082-0.797 2.32-0.75 4.16-2.082 5.519-4 1.868-2.617 4.493-5.375 7.879-8.281 0.883-0.746 2.36-1.895 4.442-3.442 1.785-1.464 2.933-2.906 3.441-4.32-0.402-0.664-1.641-0.707-3.723-0.117-2.132 0.586-3.25 0.824-3.359 0.719-0.211-0.215-0.277-0.493-0.199-0.84 0.109-0.535 0.094-1.082-0.039-1.641-0.215-0.828-0.535-1.332-0.961-1.519-0.371-0.161-1.133-0.215-2.281-0.161-1.813 0.348-3.227 0.586-4.239 0.719-1.84 0.242-3.121-0.066-3.84-0.918-0.425-0.508-0.785-1.816-1.082-3.922-0.187-1.199-1.277-1.773-3.277-1.718-1.789 0.078-3.629 0.453-5.523 1.121-1.09 0.426-2.813 1.211-5.16 2.359-1.704 0.824-3.118 1.133-4.239 0.918-0.719-0.133-2.011-0.73-3.879-1.797-0.507-0.297-1.121-0.562-1.84-0.801-0.855-0.32-1.519-0.468-2-0.441-0.722 0.027-1.281 0.387-1.683 1.082-0.359 0.641-0.344 0.988 0.043 1.039-0.652-0.074-1.281-0.555-1.883-1.441-0.746-1.121-1.277-1.785-1.598-2-1.253-0.774-2.839-0.961-4.761-0.559-1.547 0.348-3.067 0.973-4.559 1.879-1.332 1.039-2.453 1.855-3.359 2.441-1.68 1.094-2.895 1.387-3.641 0.879-0.293-0.187-0.601-0.734-0.918-1.64-0.242-0.719-0.816-1.106-1.723-1.16-0.718-0.028-1.64 0.281-2.757 0.921-1.227 0.774-2.094 1.293-2.602 1.559-1.039 0.586-1.851 1.027-2.441 1.32-1.094 0.535-1.957 0.762-2.598 0.68-1.039-0.105-2.508-0.746-4.402-1.918-2.024-1.387-3.426-2.297-4.2-2.723-0.664-0.398-1.734-1.027-3.199-1.879-1.281-0.695-2.426-1.121-3.441-1.281-1.52-0.183-2.598 0.16-3.238 1.043-0.641 1.305-1.266 2.344-1.879 3.117-0.723 0.934-1.95 1.293-3.68 1.082-0.055 0-1.402-0.32-4.043-0.961-2.211-0.535-3.387-0.812-3.52-0.839-1.492-0.188-2.625 0.054-3.398 0.718-0.855 0.723-1.172 2-0.961 3.84 0.266 2 0.227 3.242-0.121 3.723-0.348 0.531-1.918 0.293-4.719-0.723-2.988-1.066-4.851-1.371-5.601-0.918 0.269 0.852 0.402 1.559 0.402 2.117 0 0.536-0.148 1.254-0.441 2.161-0.133 0.453 0.281 0.828 1.242 1.121 1.039 0.347 1.57 0.718 1.597 1.121 0.055 0.64-0.386 1.105-1.32 1.398-1.25 0.403-1.984 0.723-2.199 0.961-0.508 0.586 0.082 1.707 1.762 3.36 1.519 1.496 2.851 2.507 4 3.039 1.465 0.695 3.453 1.347 5.957 1.961 3.254 0.828 5.281 1.375 6.082 1.64 7.652 2.508 15.078 4.305 22.281 5.399 1.945 0.296 3.652 0.48 5.117 0.562 3.36 0.16 7.266-0.105 11.723-0.801 2.027-0.32 5.625-1.265 10.797-2.84 4.535-1.386 8.16-2.148 10.882-2.281 2.481-0.133 5.868 0.242 10.161 1.121 4.691 0.989 8.066 1.508 10.117 1.559z" inkscape:connector-curvature="0"/>
          </g>
        </g>
      </g>
      <g id="g76">
        <g id="g78">
          <g id="g84">
            <path id="path96" style="fill-rule:evenodd;fill:url(#linearGradient86)" d="m95.07 112.08c0.934-5.84 1.481-10.226 1.641-13.16 0.242-4.935-0.211-9.415-1.359-13.438-0.747-2.668-1.188-5.243-1.321-7.723-0.078-1.598-0.133-4.613-0.16-9.039-0.156-6.664-0.57-12.598-1.238-17.801-0.801-6.238-2.028-12.078-3.68-17.519-1.199-4.079-2.894-8.411-5.082-13-0.453-0.985-1.32-2.774-2.601-5.36-1.067-2.32-1.637-4.027-1.719-5.117-0.774 0.773-1.973 3.078-3.598 6.918-1.652 3.949-2.922 6.426-3.801 7.441-2.082 2.348-3.281 3.731-3.601 4.161-1.25 1.812-1.84 3.531-1.758 5.16 0.051 0.797 0.027 1.504-0.082 2.117-0.027 0 0.215 0.469 0.719 1.402 1.281 2.399 3.281 4.934 6 7.598 3.414 3.359 5.468 5.48 6.16 6.359 1.601 2.082 2.762 3.883 3.48 5.403 0.586 1.574 1.043 2.785 1.36 3.64 0.562 1.465 0.976 2.758 1.242 3.879 0.613 2.426 0.945 3.719 1 3.879 0.586 2.188 1.16 5.629 1.719 10.32 0.48 4 0.359 7.293-0.36 9.879-0.586 2.082-0.894 4.121-0.918 6.121-0.027 1.176 0.067 3.215 0.278 6.121 0.242 3.36 0.386 5.493 0.441 6.399 0.106 1.336 0.215 1.922 0.32 1.762 0.801-1.387 1.078-4.282 0.84-8.68-0.238-4.723 0.106-8.215 1.039-10.481 0.586-1.414 1.149-1.828 1.684-1.242 0.449 0.481 0.851 1.574 1.199 3.281 0.344 1.575 0.559 3.442 0.641 5.602 0.105 2.481 0.011 4.773-0.282 6.879-0.109 0.668-0.082 1.602 0.079 2.801 0.16 1.386 0.226 2.332 0.203 2.84-0.243 1.226-0.336 1.972-0.282 2.238 0.051 0.293 0.653 0.414 1.797 0.359z" inkscape:connector-curvature="0"/>
          </g>
        </g>
      </g>
      <g id="g98">
        <g id="g100">
          <g id="g106">
            <path id="path118" style="fill-rule:evenodd;fill:url(#linearGradient108)" d="m67.992 67.079c0.348 2.242 0.574 3.895 0.68 4.961 0.238 1.813 0.348 3.465 0.32 4.961 0.641-0.641 0.985-2.547 1.039-5.723 0.055-3.011-0.16-6.066-0.64-9.156-0.293-1.922-0.825-4.722-1.598-8.402-0.934-4.32-1.523-7.117-1.762-8.399-0.347-1.839-0.172-3.402 0.52-4.679 0.215-0.375 1.226-1.641 3.039-3.801 4.293-5.121 7.226-9.961 8.801-14.52 1.386-3.867 1.707-7.492 0.961-10.882 0.507-0.239 1.226-0.266 2.16-0.079 1.011 0.239 1.957 0.227 2.84-0.039 0.16-0.054 0.984-0.48 2.48-1.281 0.934-0.508 1.734-0.668 2.398-0.48-0.371-0.508-1.292-0.653-2.757-0.442-1.84 0.27-2.934 0.375-3.282 0.321-0.558-0.106-1.199-0.375-1.921-0.801-0.665-0.371-1.227-0.785-1.68-1.238 0.375-0.082 1.469-0.082 3.281 0 1.469 0.05 2.668-0.133 3.602-0.563 0.984-0.449 2.066-1.172 3.238-2.16 1.043-0.692 2.309-0.863 3.801-0.52-1.172-0.906-2.719-1.011-4.641-0.316-2.719 0.957-4.254 1.453-4.601 1.48-1.2 0.051-2.907-0.093-5.118-0.441-2.16-0.348-3.812-0.48-4.961-0.402 1.813-0.157 3.039-0.493 3.68-1 0.586-0.426 0.961-0.746 1.121-0.957 0.16-0.243 0.238-0.629 0.238-1.161-0.585 0.907-1.773 1.293-3.558 1.161-3.414-0.215-5.371-0.293-5.879-0.243-0.828 0.055-3.441 0.348-7.84 0.883-0.723 0.078-1.773 0.028-3.16-0.16-0.082 0-1.387-0.215-3.922-0.641 1.227 0.879 2.188 1.547 2.883 2 1.25 0.829 2.359 1.118 3.316 0.879-0.558 0.293-0.984 0.481-1.277 0.563-0.16 0.051-0.695 0.156-1.602 0.316-0.984 0.16-1.734 0.282-2.238 0.36-0.883 0.136-1.75 0.203-2.601 0.203-0.641 0-1.547-0.094-2.719-0.281-1.336-0.215-2.227-0.332-2.68-0.36-0.75-0.055-1.601 0.078-2.562 0.399-0.797 0.293-1.453 0.347-1.957 0.16 0.347 0.242 0.906 0.386 1.679 0.441 0.399 0.028 0.985 0.051 1.758 0.078 0.695 0.055 1.441 0.36 2.242 0.922 0.907 0.641 1.653 1.028 2.239 1.16 1.308 0.344 2.425 0.481 3.359 0.399 0.988-0.078 1.613-0.094 1.883-0.039 0.531 0.105 0.785 0.492 0.758 1.16-0.055 0.586-0.305 1.226-0.758 1.918-0.375 0.586-1.043 1.508-2 2.762-0.883 1.144-1.535 2.066-1.961 2.757-2.242 3.653-4.188 7.907-5.84 12.762-1.734 5.012-3.105 10.691-4.121 17.039-0.695 4.481-1.36 10.481-2 18-0.426 4.985-1.121 8.481-2.078 10.481-0.055 0.105-1.321 2.199-3.801 6.281-1.922 3.144-3.254 6.012-4 8.598-1.176 4.027-1.734 7.816-1.68 11.359 0.078 3.922 0.973 5.867 2.68 5.844 0.078-1.414 0.16-3.375 0.238-5.883 0.133-2.133 0.36-4.094 0.68-5.879 0.586-3.281 2.402-6.867 5.441-10.762 1.254-1.625 2.293-2.023 3.121-1.199 0.774 0.773 1.067 2.254 0.879 4.441-0.48 5.145-0.668 9.188-0.558 12.121 0.105 2.907 0.316 5.372 0.636 7.399 0.883 0.348 1.68 0.426 2.403 0.238-0.43-6.129-0.641-9.238-0.641-9.316 0.028-3.867 0.879-6.309 2.559-7.321 0.695-0.32 1.148 1.493 1.359 5.442 0.133 4.746 0.227 7.891 0.281 9.437 0.536 0.106 1.133 0.149 1.801 0.121 0.774 0 1.332-0.105 1.68-0.32-0.027-0.695-0.082-2.828-0.16-6.398-0.028-2.403-0.16-4.574-0.403-6.52-0.05-1.203-0.211-3.226-0.476-6.082-0.297-2.961-0.469-4.961-0.524-6-0.211-4.265-0.066-8 0.442-11.199 0.558-3.547 1.64-7.109 3.242-10.68 0.293-0.668 1.133-2.668 2.519-6 1.493-3.015 2.946-4.535 4.36-4.562 0.48 0 0.945 0.176 1.398 0.519 0.828 0.586 1.563 1.575 2.2 2.961 0.617 1.653 1.054 2.852 1.32 3.602 0.855 2.265 1.652 5.734 2.402 10.398z" inkscape:connector-curvature="0"/>
          </g>
        </g>
      </g>
      <g id="g120">
        <g id="g122">
          <g id="g128">
            <path id="path136" style="fill-rule:evenodd;fill:url(#radialGradient130)" d="m124.15 107.72c1.68-1.547 2.801-2.84 3.36-3.879 0.906-1.734 0.664-2.453-0.719-2.16-0.855 0.187-2.336 0.851-4.441 2-1.68 0.961-2.707 1.48-3.082 1.558-0.907 0.215-1.918-0.078-3.04-0.879-0.933-0.906-1.625-1.558-2.078-1.96-0.828-0.719-1.683-1.051-2.562-1-0.824 0.054-1.774 0.453-2.84 1.199-1.309 0.961-2.172 1.523-2.598 1.679-0.082-0.503-0.082-1.652 0-3.437 0.078-1.496-0.027-2.586-0.32-3.281-0.801-1.946-2.43-2.559-4.883-1.84-1.547 0.426-3.347 1.359-5.398 2.801-1.469 1.304-2.641 2.304-3.52 3-1.601 1.332-2.894 1.906-3.879 1.718-0.91-0.16-1.761-1-2.562-2.519-0.824-1.574-1.664-2.481-2.52-2.719-0.773-0.215-1.758 0-2.961 0.641-1.25 0.664-2.199 0.957-2.839 0.879-0.907-0.106-1.665-0.735-2.278-1.879-0.773-1.387-1.387-2.231-1.84-2.52-0.668-0.429-1.59-0.48-2.761-0.16-0.614 0.16-1.52 0.531-2.719 1.117-1.442 0.696-3.055 1.762-4.84 3.199-2.453 1.977-3.961 3.149-4.523 3.524-1.493 1.012-2.747 1.117-3.758 0.32-1.895-1.496-2.961-2.281-3.199-2.363-1.36-0.453-3.055-0.227-5.082 0.68-1.758 0.8-3.2 1.082-4.321 0.839-0.957-0.183-2.172-0.945-3.64-2.277-3.305-2.961-6.25-4.094-8.84-3.402-0.934 0.242-2.344 1.656-4.239 4.242-1.574 2.16-3.304 2.984-5.199 2.48-1.093-0.48-1.922-0.828-2.48-1.043-1.039-0.343-1.68-0.156-1.922 0.563-0.184 0.48 0.176 1.305 1.082 2.48 0.851 1.145 1.148 1.985 0.879 2.52-0.453 0.852-2.078 0.426-4.879-1.281-1.441-0.879-3.082-2-4.922-3.36-2.023-1.332-3.906-2.066-5.637-2.199-2.16-0.16-2.695 1.078-1.601 3.719 0.187 0.453 0.773 1.601 1.758 3.441 0.589 1.094 0.75 1.664 0.48 1.719-0.824 0.055-1.398 0.105-1.719 0.16-0.558 0.133-0.734 0.481-0.519 1.039 0.16 0.375 1.066 1.496 2.719 3.36 1.628 1.894 2.734 3.082 3.32 3.562 0.265 0.211 0.762 0.547 1.48 1 0.375 0.211 0.801 0.613 1.282 1.199 1.226 1.387 2.972 2.762 5.238 4.121 1.254 0.747 3.176 1.868 5.762 3.36 1.011 0.64 2.757 1.933 5.238 3.879 2.187 1.707 3.988 2.961 5.402 3.761 5.465 3.094 10.797 4.426 16 4 4.453-0.347 9.371-2.093 14.758-5.242 1.359-0.801 3.773-2.801 7.242-6 4.449-4.105 7.039-6.465 7.758-7.078 2.055-1.707 3.801-2.695 5.242-2.961 1.305-0.238 2.731 0.067 4.278 0.922 2.48 1.359 4.707 2.332 6.683 2.918 2.477 0.746 4.906 0.988 7.277 0.719 3.36-0.399 6.922-1.813 10.68-4.239 1.949-1.281 5.028-3.679 9.242-7.199 2-1.679 3.332-2.828 4-3.441z" inkscape:connector-curvature="0"/>
          </g>
        </g>
      </g>
      <g id="g138">
        <g id="g140">
          <g id="g146">
            <path id="path166" style="fill-rule:evenodd;fill:url(#radialGradient148)" d="m103.47 108.56c-0.028-0.532 0.093-1.692 0.359-3.481 0.211-1.304 0.133-2.437-0.242-3.398-1.067-2.586-3.172-3.199-6.32-1.84-1.438 0.641-3.731 2.16-6.879 4.559-1.172 1.015-2.161 1.789-2.961 2.32-1.465 1.039-2.571 1.375-3.317 1-0.773-0.399-1.203-1.598-1.281-3.598-0.082-1.816-0.801-2.844-2.16-3.082-1.469-0.238-2.961 0.453-4.481 2.082-1.519 2.024-2.558 3.399-3.121 4.117-1.011 1.336-1.8 1.215-2.359-0.359-0.32-0.824-0.602-2.332-0.84-4.52-0.293-2.347-1.746-2.8-4.359-1.359-2 1.094-3.95 2.734-5.84 4.918-2.188 2.508-3.774 3.961-4.762 4.359-1.707 0.723-3.066-0.371-4.078-3.277-0.535-1.281-1.242-1.922-2.121-1.922-0.824 0.028-1.441 0.602-1.84 1.723-0.48 2-0.851 3.238-1.121 3.719-0.426 0.746-1.371 0.746-2.84 0-1.117-0.586-2.504-1.707-4.16-3.36-1.707-1.707-3.359-3.015-4.957-3.922-1.254-0.691-2.481-1.011-3.684-0.961-1.382 0.082-2.531 0.657-3.437 1.723-0.641 0.801-0.922 2.067-0.84 3.801 0.078 2.133 0.012 3.57-0.199 4.32-0.403 1.438-1.602 1.891-3.602 1.36-1.386-0.348-3.535-1.348-6.441-3-3.703-2.082-6.012-3.321-6.918-3.723-2.375-1.094-4.016-1.371-4.922-0.84-1.012 0.586-0.852 1.789 0.48 3.602 1.657 2.265 2.481 3.652 2.481 4.16 0 0.215-0.734-0.133-2.199-1.039-1.52-0.961-2.375-1.176-2.559-0.641-0.269 0.774 0.559 2.133 2.477 4.078 2.562 2.403 4.414 4.242 5.562 5.52 2.719 3.523 5.199 6.496 7.438 8.922 4.16 4.507 8.59 8.078 13.281 10.718 5.465 3.067 10.785 4.387 15.961 3.961 4.504-0.347 9.426-2.093 14.758-5.238 1.386-0.801 3.816-2.801 7.281-6 4.535-4.16 7.121-6.508 7.762-7.043 2.027-1.707 3.773-2.691 5.238-2.957 1.309-0.269 2.719 0.023 4.242 0.879 3.012 1.68 5.453 2.746 7.317 3.199 4.136 1.016 8.296 0.625 12.484-1.16 2.879-1.199 5.492-3.187 7.84-5.961 1.383-1.625 3.41-4.238 6.078-7.84 1.519-1.812 3.469-3.89 5.84-6.238 1.308-1.469 1.332-2.293 0.082-2.481-0.828-0.132-2.961 0.868-6.403 3-2.906 1.786-4.386 2.188-4.437 1.2 0.133-1.52-0.199-2.719-1-3.598-0.988-1.066-2.414-1.148-4.281-0.242-1.172 0.558-2.586 1.707-4.243 3.441-1.011 1.039-1.597 1.172-1.757 0.399z" inkscape:connector-curvature="0"/>
          </g>
        </g>
      </g>
      <g id="g168">
        <g id="g170">
          <g id="g176">
            <path id="path184" style="fill-rule:evenodd;fill:url(#radialGradient178)" d="m72.352 72.642c1.386-0.137 3.613-0.282 6.679-0.442 2.641-0.293 4.696-1.027 6.16-2.199 0.481-0.375 1.215-0.906 2.2-1.601 0.879-0.668 1.562-1.266 2.039-1.801 0.773-0.879 0.988-1.481 0.64-1.797-0.316-0.27-0.89-0.297-1.718-0.082-0.106 0.027-0.586 0.199-1.442 0.519-0.426 0.188-0.652 0.172-0.68-0.039 0-0.054 0.04-0.347 0.122-0.882-0.028-0.532-0.266-0.879-0.719-1.04-0.16-0.027-0.934 0.415-2.321 1.321-1.226 0.801-2.132 0.867-2.718 0.199-0.16-0.188-0.293-0.613-0.403-1.281-0.105-0.559-0.332-0.957-0.679-1.199-0.828-0.559-1.735-0.625-2.719-0.2-0.375 0.16-1.426 1.188-3.16 3.082-1.254 1.387-2.492 1.825-3.719 1.317-1.199-0.93-2.148-1.641-2.844-2.117-1.304-0.907-2.343-0.973-3.117-0.2-0.215 0.211-0.332 0.625-0.359 1.239 0 0.586-0.121 0.972-0.36 1.16-0.402 0.32-0.922 0.363-1.562 0.121-0.668-0.399-1.149-0.641-1.442-0.719-1.171-0.398-2.132-0.215-2.878 0.559-0.614 0.988-1.028 1.629-1.243 1.922-0.265 0.398-0.918 0.492-1.957 0.277-1.199-0.293-2.015-0.465-2.441-0.52-1.359-0.183-2.066 0.133-2.121 0.961-0.024 0.801 0.574 1.547 1.801 2.243 0.187 0.078 0.601 0.171 1.242 0.277 0.664 0.109 1.039 0.187 1.117 0.242 2.293 1.012 5.359 1.481 9.203 1.398 1.332-0.027 4.465-0.265 9.399-0.718z" inkscape:connector-curvature="0"/>
          </g>
        </g>
      </g>
      <g id="g186">
        <g id="g188">
          <g id="g194">
            <path id="path214" style="fill-rule:evenodd;fill:url(#radialGradient196)" d="m66.91 81.962c2.961 1.012 5.84 0.559 8.641-1.363 0.906-0.637 1.879-1.504 2.918-2.598 0.59-0.641 1.457-1.601 2.601-2.879 0.321-0.347 2.375-2.375 6.16-6.082 0.879-0.828 1.387-1.332 1.52-1.519 0.586-0.641 0.773-1.106 0.559-1.399-0.266-0.32-1.051-0.027-2.36 0.879-2 1.359-3.105 2.094-3.32 2.199l-0.317-0.16c0.024-0.183 0.227-0.668 0.598-1.437 0.242-0.696 0.067-1.071-0.519-1.121-0.215-0.082-0.774 0.398-1.68 1.441-0.879 1.012-1.469 1.426-1.758 1.238-0.269-0.16-0.363-0.707-0.281-1.64 0.078-0.961-0.027-1.586-0.32-1.879-0.508-0.481-1.133-0.547-1.883-0.199-0.293 0.16-0.852 0.585-1.68 1.277-1.012 1.043-1.797 1.828-2.359 2.359-1.039 0.934-2 1.375-2.879 1.321-0.613-0.051-1.668-0.747-3.16-2.079-1.254-1.121-2.348-1.441-3.282-0.961-0.398 0.188-0.773 0.653-1.117 1.399-0.32 0.641-0.707 1-1.16 1.082-0.242 0.027-0.789-0.133-1.641-0.481-0.64-0.292-1.187-0.171-1.64 0.36-0.028 0.055-0.227 0.519-0.602 1.402-0.133 0.371-0.547 0.481-1.238 0.317-0.106-0.024-1.414-0.504-3.922-1.438-1.73-0.641-2.824-0.801-3.277-0.48-0.293 0.293 0.023 0.734 0.957 1.32 1.176 0.664 1.949 1.133 2.32 1.398 1.707 1.2 2.988 2.106 3.84 2.719 1.496 1.094 2.723 2.055 3.68 2.883 2.507 2.133 4.711 3.504 6.601 4.121z" inkscape:connector-curvature="0"/>
          </g>
        </g>
      </g>
      <path id="path216" style="fill-rule:evenodd;fill:#9ef0e3" d="m92.992 127.24c1.465 0.403 2.613 0.426 3.438 0.082 0.8-0.347 0.84-0.734 0.121-1.16-0.906-0.535-1.906-1.015-3-1.441-1.492-0.531-2.84-0.801-4.039-0.801-1.254 0-1.293 0.481-0.121 1.441 1.121 0.907 2.32 1.536 3.601 1.879z" inkscape:connector-curvature="0"/>
      <path id="path218" style="fill-rule:evenodd;fill:#b1f3e9" d="m101.83 125.36c-0.105 0.879 0.813 1.028 2.758 0.442 1.922-0.59 2.68-1.215 2.281-1.883-0.371-0.613-1.293-0.664-2.758-0.16-1.468 0.48-2.23 1.016-2.281 1.601z" inkscape:connector-curvature="0"/>
      <path id="path220" style="fill-rule:evenodd;fill:#b1f3e9" d="m98.109 127.32c0.375 0.559 1.121 0.559 2.243 0 1.148-0.562 1.214-0.867 0.199-0.921-0.801-0.051-1.442 0.082-1.918 0.402l-0.524 0.519z" inkscape:connector-curvature="0"/>
      <path id="path222" style="fill-rule:evenodd;fill:#9ef0e3" d="m108.91 123.52 0.602-0.243c0.453-0.238 0.84-0.519 1.16-0.839 0.504-0.477 0.84-0.946 1-1.399 0.183-0.535-0.055-0.668-0.719-0.398-0.723 0.265-1.375 0.812-1.961 1.636-0.586 0.829-0.613 1.243-0.082 1.243z" inkscape:connector-curvature="0"/>
      <path id="path224" style="fill-rule:evenodd;fill:#9ef0e3" d="m114.95 116.52 0.359-0.2c0.293-0.16 0.532-0.347 0.719-0.562 0.293-0.32 0.481-0.613 0.559-0.879 0.082-0.32-0.094-0.387-0.52-0.199-0.453 0.187-0.84 0.547-1.16 1.078-0.32 0.535-0.305 0.789 0.043 0.762z" inkscape:connector-curvature="0"/>
      <path id="path226" style="fill-rule:evenodd;fill:#9ef0e3" d="m86.512 122.16c0.933 0.614 1.824 0.758 2.679 0.438 0.879-0.293 0.868-0.637-0.039-1.039-0.91-0.399-1.773-0.547-2.601-0.438-0.852 0.106-0.867 0.453-0.039 1.039z" inkscape:connector-curvature="0"/>
      <path id="path228" style="fill-rule:evenodd;fill:#9ef0e3" d="m98.91 121.08c-1.519 0-2.691 0.426-3.519 1.281-0.825 0.879-0.68 1.508 0.441 1.879 1.227 0.426 2.508 0.52 3.84 0.282 1.199-0.215 2.055-0.614 2.558-1.2 0.454-0.535 0.321-1.043-0.398-1.519-0.723-0.481-1.695-0.723-2.922-0.723z" inkscape:connector-curvature="0"/>
      <path id="path230" style="fill-rule:evenodd;fill:#9ef0e3" d="m38.031 122.2c0.106-0.425-0.054-0.707-0.48-0.84-0.453-0.16-0.746-0.027-0.879 0.399-0.133 0.43 0.027 0.707 0.48 0.84 0.184 0.054 0.36 0.043 0.52-0.039 0.187-0.055 0.305-0.172 0.359-0.36z" inkscape:connector-curvature="0"/>
      <path id="path232" style="fill-rule:evenodd;fill:#9ef0e3" d="m39.992 118.52c0.078-0.266 0.051-0.52-0.082-0.762-0.105-0.238-0.293-0.399-0.558-0.481-0.266-0.105-0.536-0.089-0.801 0.043-0.239 0.106-0.399 0.293-0.481 0.559-0.078 0.266-0.05 0.508 0.082 0.719 0.106 0.242 0.293 0.414 0.559 0.523 0.266 0.078 0.535 0.051 0.801-0.082 0.238-0.105 0.398-0.281 0.48-0.519z" inkscape:connector-curvature="0"/>
      <path id="path234" style="fill-rule:evenodd;fill:#9ef0e3" d="m36.031 115.48c0.078-0.243 0.067-0.469-0.039-0.68-0.133-0.215-0.32-0.363-0.562-0.442-0.586-0.132-0.957 0.051-1.118 0.559-0.082 0.215-0.054 0.43 0.079 0.641 0.105 0.215 0.281 0.359 0.519 0.441 0.242 0.078 0.469 0.067 0.68-0.039 0.215-0.109 0.363-0.269 0.441-0.48z" inkscape:connector-curvature="0"/>
      <path id="path236" style="fill-rule:evenodd;fill:#9ef0e3" d="m38.672 113.96c0.078-0.402-0.067-0.668-0.442-0.801-0.425-0.133-0.707-0.015-0.839 0.36-0.055 0.16-0.039 0.32 0.039 0.48 0.082 0.16 0.215 0.266 0.402 0.32 0.426 0.133 0.707 0.012 0.84-0.359z" inkscape:connector-curvature="0"/>
      <path id="path238" style="fill-rule:evenodd;fill:#9ef0e3" d="m34.91 110.12c0.082-0.297 0.055-0.574-0.078-0.844-0.133-0.265-0.348-0.453-0.641-0.558-0.293-0.078-0.574-0.051-0.839 0.082-0.266 0.133-0.442 0.332-0.52 0.598-0.105 0.293-0.094 0.574 0.039 0.839 0.133 0.266 0.348 0.454 0.641 0.563 0.293 0.078 0.574 0.051 0.84-0.082 0.265-0.133 0.453-0.332 0.558-0.598z" inkscape:connector-curvature="0"/>
      <path id="path240" style="fill-rule:evenodd;fill:#9ef0e3" d="m44.312 117.08c0.079-0.211 0.067-0.437-0.042-0.679-0.133-0.211-0.317-0.36-0.559-0.438-0.215-0.082-0.441-0.066-0.68 0.039-0.215 0.133-0.359 0.305-0.441 0.52-0.078 0.238-0.051 0.464 0.082 0.679 0.105 0.239 0.281 0.399 0.519 0.481 0.215 0.054 0.442 0.027 0.68-0.082 0.215-0.106 0.359-0.278 0.441-0.52z" inkscape:connector-curvature="0"/>
      <path id="path242" style="fill-rule:evenodd;fill:#9ef0e3" d="m66.473 73.841c-0.028-0.215-0.121-0.387-0.282-0.52-0.16-0.132-0.347-0.187-0.558-0.16-0.188 0-0.363 0.078-0.52 0.239-0.136 0.16-0.187 0.347-0.16 0.562 0.024 0.211 0.117 0.383 0.277 0.52 0.161 0.16 0.336 0.226 0.524 0.199 0.211-0.028 0.398-0.121 0.558-0.281 0.133-0.161 0.188-0.344 0.161-0.559z" inkscape:connector-curvature="0"/>
      <path id="path244" style="fill-rule:evenodd;fill:#9ef0e3" d="m69.152 75.919c-0.054-0.293-0.199-0.414-0.441-0.359-0.242 0-0.359 0.148-0.359 0.441 0 0.238 0.148 0.359 0.441 0.359 0.238-0.054 0.359-0.199 0.359-0.441z" inkscape:connector-curvature="0"/>
      <path id="path246" style="fill-rule:evenodd;fill:#c4f0e3" d="m70.391 77.321c0-0.132-0.079-0.199-0.239-0.199-0.132 0-0.199 0.078-0.199 0.238 0 0.133 0.078 0.2 0.238 0.2 0.188 0 0.254-0.078 0.2-0.239z" inkscape:connector-curvature="0"/>
      <path id="path248" style="fill-rule:evenodd;fill:#c4f0e3" d="m73.031 72.841c-0.027-0.242-0.133-0.441-0.32-0.602-0.184-0.16-0.399-0.238-0.641-0.238-0.238 0.027-0.437 0.133-0.597 0.32-0.161 0.184-0.227 0.399-0.203 0.637 0.027 0.242 0.136 0.442 0.32 0.602 0.16 0.16 0.375 0.226 0.64 0.199 0.243-0.027 0.442-0.121 0.602-0.281 0.16-0.184 0.227-0.399 0.199-0.637z" inkscape:connector-curvature="0"/>
      <path id="path250" style="fill-rule:evenodd;fill:#c4f0e3" d="m74.992 73.56c0-0.16-0.054-0.293-0.16-0.399-0.133-0.105-0.281-0.148-0.441-0.121-0.348 0-0.52 0.199-0.52 0.602 0.055 0.398 0.254 0.57 0.602 0.519 0.16 0 0.293-0.066 0.398-0.199 0.106-0.109 0.149-0.242 0.121-0.402z" inkscape:connector-curvature="0"/>
      <path id="path252" style="fill-rule:evenodd;fill:#c4f0e3" d="m72.953 75.4c-0.055-0.239-0.176-0.332-0.363-0.278-0.184 0-0.278 0.106-0.278 0.317 0 0.242 0.106 0.336 0.317 0.281 0.215 0 0.324-0.106 0.324-0.32z" inkscape:connector-curvature="0"/>
      <path id="path254" style="fill-rule:evenodd;fill:#9ef0e3" d="m69.27 73.56c-0.051-0.371-0.266-0.559-0.637-0.559-0.375 0.055-0.563 0.266-0.563 0.641 0.055 0.426 0.27 0.613 0.641 0.558 0.16 0 0.293-0.066 0.402-0.199 0.129-0.133 0.184-0.281 0.157-0.441z" inkscape:connector-curvature="0"/>
      <path id="path256" style="fill-rule:evenodd;fill:#c4f0e3" d="m73.109 78.2c0-0.215-0.089-0.32-0.277-0.32-0.187 0.055-0.281 0.16-0.281 0.32 0 0.188 0.094 0.282 0.281 0.282 0.188 0 0.277-0.094 0.277-0.282z" inkscape:connector-curvature="0"/>
      <path id="path258" style="fill-rule:evenodd;fill:#c4f0e3" d="m70.391 79.841c-0.028-0.133-0.094-0.254-0.2-0.359-0.132-0.11-0.265-0.149-0.398-0.122-0.375 0.051-0.535 0.239-0.481 0.559 0 0.348 0.184 0.52 0.559 0.52 0.348-0.051 0.52-0.25 0.52-0.598z" inkscape:connector-curvature="0"/>
      <path id="path260" style="fill-rule:evenodd;fill:#9ef0e3" d="m43.672 144.48c2.078 0.05 3.707-0.215 4.879-0.801s1.121-1.067-0.16-1.442c-1.332-0.371-3-0.574-5-0.597-2.106-0.028-3.614 0.172-4.52 0.597-0.984 0.481-0.84 0.973 0.441 1.481 1.2 0.453 2.653 0.707 4.36 0.762z" inkscape:connector-curvature="0"/>
      <path id="path262" style="fill-rule:evenodd;fill:#9ef0e3" d="m55.031 142.36c2.293-1.359 2.895-2.187 1.801-2.48s-2.535 0.176-4.32 1.398c-1.602 1.094-1.895 1.735-0.879 1.922 0.984 0.188 2.117-0.093 3.398-0.84z" inkscape:connector-curvature="0"/>
      <path id="path264" style="fill-rule:evenodd;fill:#9ef0e3" d="m50.352 141.4c1.226-0.293 2.078-0.747 2.558-1.36 0.481-0.586 0.426-1.078-0.16-1.48-0.559-0.348-1.32-0.414-2.277-0.2-0.907 0.188-1.774 0.586-2.602 1.2-0.746 0.562-0.746 1.082 0 1.562 0.695 0.426 1.52 0.52 2.481 0.278z" inkscape:connector-curvature="0"/>
      <path id="path266" style="fill-rule:evenodd;fill:#9ef0e3" d="m42.473 140.12c0.691-0.137 1.105-0.441 1.238-0.922 0.133-0.507-0.188-0.812-0.961-0.922-0.824-0.132-1.492-0.117-2 0.043-0.48 0.133-0.746 0.387-0.797 0.758-0.027 0.375 0.238 0.668 0.797 0.883 0.535 0.238 1.109 0.293 1.723 0.16z" inkscape:connector-curvature="0"/>
      <path id="path268" style="fill-rule:evenodd;fill:#9ef0e3" d="m56.59 138.16c0.32-0.375 0.375-0.734 0.16-1.082-0.211-0.344-0.574-0.386-1.078-0.117-1.121 0.613-1.481 1.16-1.082 1.637 0.187 0.215 0.508 0.281 0.961 0.203 0.426-0.109 0.773-0.32 1.039-0.641z" inkscape:connector-curvature="0"/>
      <path id="path270" style="fill-rule:evenodd;fill:#9ef0e3" d="m34.832 142.12c0.852 0.266 1.504 0.25 1.961-0.043 0.453-0.293 0.266-0.679-0.563-1.16-1.867-1.117-3.078-1.426-3.64-0.918-0.266 0.266-0.145 0.625 0.363 1.078 0.477 0.453 1.106 0.801 1.879 1.043z" inkscape:connector-curvature="0"/>
      <path id="path272" style="fill-rule:evenodd;fill:#9ef0e3" d="m64.391 135c-1.786 1.172-2.641 2.094-2.559 2.758 0.055 0.297 0.371 0.32 0.961 0.082 0.586-0.242 1.172-0.641 1.758-1.199 0.668-0.641 1-1.203 1-1.68 0-0.48-0.387-0.469-1.16 0.039z" inkscape:connector-curvature="0"/>
      <path id="path274" style="fill-rule:evenodd;fill:#9ef0e3" d="m66.551 133.2c0.402-0.375 0.586-0.718 0.558-1.039-0.023-0.347-0.293-0.375-0.797-0.082-1.175 0.641-1.695 1.188-1.562 1.641 0.055 0.215 0.281 0.265 0.68 0.16 0.402-0.105 0.773-0.332 1.121-0.68z" inkscape:connector-curvature="0"/>
    </g>
  </g>
<metadata><rdf:RDF><cc:Work><dc:format>image/svg+xml</dc:format><dc:type rdf:resource="http://purl.org/dc/dcmitype/StillImage"/><cc:license rdf:resource="http://creativecommons.org/licenses/publicdomain/"/><dc:publisher><cc:Agent rdf:about="http://openclipart.org/"><dc:title>Openclipart</dc:title></cc:Agent></dc:publisher></cc:Work><cc:License rdf:about="http://creativecommons.org/licenses/publicdomain/"><cc:permits rdf:resource="http://creativecommons.org/ns#Reproduction"/><cc:permits rdf:resource="http://creativecommons.org/ns#Distribution"/><cc:permits rdf:resource="http://creativecommons.org/ns#DerivativeWorks"/></cc:License></rdf:RDF></metadata></svg>